<svg xmlns="http://www.w3.org/2000/svg" viewBox="0 0 574.96 283.69"><defs><style>.cls-1{fill:none;}.cls-2{fill:#fedc32;}</style></defs><title>Asset 1</title><g id="Layer_2" data-name="Layer 2"><g id="Layer_1-2" data-name="Layer 1"><path class="cls-1" d="M287.48,283.62q-142,0-283.93.07C.65,283.69,0,283,0,280.14Q.13,141.84,0,3.55C0,.65.65,0,3.55,0Q287.48.12,571.41,0c2.9,0,3.55.65,3.55,3.55q-.13,138.3,0,276.59c0,2.9-.65,3.55-3.55,3.55Q429.45,283.56,287.48,283.62ZM4.81,207.71c-.65,7.66.53,15,1.6,22.33.86,5.84,1.54,12,5,17,5.42,7.88,10.84,15.85,18.48,21.85S45.94,279,56.26,279.16c10.68.18,20.59-2.21,30.52-5.61,20.15-6.9,34.75-20.36,45.36-38.32,6.14-10.4,3.26-22.1,2.49-33.15-.57-8.21-4.22-16-7.13-23.83a160.08,160.08,0,0,0-20-36.67C96.75,126.47,86.9,111.29,82.26,93,79,80.2,76.52,67.48,80.47,54.46a172.25,172.25,0,0,1,10.84-27c1.48-3,2.85-6.1.24-8.85s-6.44-2.71-10.06-2a21.11,21.11,0,0,0-2.82,1.06C71.78,20.12,66.18,24.51,61,29.44c-6.5,6.19-11.9,13.4-18,20-8.42,9.13-14.8,19.72-21.15,30.26-3.56,5.9-4.39,12.91-5.57,19.66-.79,4.5-2.29,9-1.32,13.61,3,14.32,10.92,25.39,22.62,34.08,7.76,5.77,16.73,9.07,25.28,13.2,8.9,4.31,18.35,17.45,16.08,29.38-1.4,7.36-7.17,15.29-15.24,17-5.39,1.11-10.11-.57-14.88-1.88-10.61-2.92-19.16-8.33-22-20.13a24.43,24.43,0,0,0-5.13-10.15c-3-3.46-5-3.49-8.27-.39a18,18,0,0,0-4.9,8C6,190.47,3.93,199,4.81,207.71Zm230.28-81.52c-2.41,0-5-.41-7.52.07a85.38,85.38,0,0,0-27.73,10.13c-10.81,6.38-20,14.61-29.61,22.44-4.78,3.92-5.27,8.7-2.87,14.32s5,11.33,7.31,17.06c2.78,6.76,5.72,13.38,6.38,20.93a75.8,75.8,0,0,1-.16,17c-.92,6.73-1.62,13.5-2.47,20.24-1,7.86-2.94,15.58-3,23.57,0,3,.45,3.67,3.65,2.58,2.81-1,5.71-1.71,8.28-3.19,7.84-4.52,16.33-7.78,24.07-12.49,2.53-1.54,5.31-2.46,1.43-5.64-1.38-1.13-2.22-3-3.15-4.6-3.23-5.6-3.3-11.15-.43-17.09,4.36-9,15.36-10.29,24.32-8.29,7.43,1.66,14,12.48,14.48,21.82.18,3.83.84,4.31,4.65,3.43a104.93,104.93,0,0,1,13.2-2.6c2.4-.24,2.47-1.28,2.23-2.86a42.94,42.94,0,0,0-4.66-14c-3-5.62-7.89-8.9-13.18-11.87-4.22-2.37-3.85-6.19-1.61-8.57,6.55-7,9.77-15.7,12.3-24.44a78.76,78.76,0,0,0,2.67-26.33,54.76,54.76,0,0,0-4-18.55c-2.2-5.2-5.18-9.92-10.95-11.62C244.35,126.36,239.87,125.37,235.09,126.19Zm-68-7.19c6.27.33,13,.23,19.32-2.33,8.85-3.57,15.47-9.94,21.56-17.21,10.67-12.71,13.73-27.31,10.59-43a55.62,55.62,0,0,0-15.8-29.64c-5.83-5.66-12.89-8.91-20.1-12.06A41.51,41.51,0,0,0,164,11,54,54,0,0,0,135.6,21.22c-20.48,14.43-26.7,36.55-20.74,60C120,101.39,144.38,121.51,167.06,119ZM264.63,5.51C259,4.85,253,6.6,247.24,8.7c-5.33,2-10.76,3.85-14.67,8.67s-4.42,7.57-2.23,13.24c3.37,8.77,6.32,17.71,9.21,26.65s2.63,18.49,2.43,27.92c-.21,9.63,3.55,13.94,12.71,16.14,7.89,1.89,15.93,3,23.82,4.74,5.36,1.2,10.41,3.33,16.14,3.05S305,107,308.21,101.87c3-4.79,3.9-10.12,4.88-15.5.77-4.21-.3-6.95-3.85-8.5-3.35-1.47-11.7.7-13.85,3.57-4.23,5.64-9.69,8.58-16.89,7.47a8.94,8.94,0,0,1-7.58-6.27c-.92-2.92,2.12-4.22,3.76-5.92,1.09-1.13,2.71-1.72,4-2.67,2.36-1.71,4.85-3.33,6.4-5.87.59-1,1.51-2.09.29-3.42-1.07-1.17-2.24-1.73-3.72-1.17a14.48,14.48,0,0,0-6,3.58c-3.69,4.14-7.39,2.61-9.94-.61-7.81-9.88-4.11-21.64,7.44-26.24,5.54-2.21,11.11-.56,16.58,1,7.21,2.1,9.11,1.33,12.37-5.51,4.34-9.13,3.12-14.6-3.9-20.79a24.14,24.14,0,0,0-9.55-4.82C281,8,273.45,5.08,264.63,5.51ZM337.55,160c-1.61.29-3.48-.06-5.43.39-8.34,1.93-15.86,4.71-22.62,10.69-5.83,5.15-8.62,10.29-7.33,17.73.58,3.33,1.92,6.67,5,8a23.2,23.2,0,0,0,14.41,1.4c8.81-2,17.43-1.57,25.61,2.6,4.49,2.29,6.26,6.12,5.17,10.66-.83,3.45-4.86,6.76-8.05,7.33-4,.72-5.91-1.61-7.29-4.58a18.83,18.83,0,0,1-1.58-6.07c-.19-2-.8-2.06-2.4-1.45-5.19,2-10.37,4.05-15.66,5.74-1.52.48-1.4,1.23-1.3,2.16.13,1.23.52,2.43.74,3.65,1.94,11.19,8.41,18.56,18.86,22.74,8.3,3.32,16.93,2.86,25.49,2.2a9,9,0,0,0,7.51-5.56c4.58-10.19,4.86-21.08,3.37-31.65-1.9-13.49-12.24-18.5-23.83-21.23-6.81-1.61-13.76-.8-20.63-.68-5.64.09-7.63-4.63-6.77-8.6.59-2.73,2.09-5.5,5.4-6.15,3.08-.61,4.9.93,6.34,3.58,1.1,2,3.39,2.63,5.56,2.52,4.89-.23,9.68,1.14,14.7.25,3.36-.6,3-2,2.3-4C353.22,166.31,343.72,160,337.55,160ZM502,191.68h-2.32c-4.8,0-4.73.18-3.74,5.13,1.28,6.41,3,12.91,2.33,19.44a175.12,175.12,0,0,1-4,22.88c-.81,3.37.53,4.33,3,5.07,5.65,1.7,11.52,2.35,17.33,3s8.28-1.6,7.79-6.72c-.38-3.93.32-7.88-.32-11.85-.13-.83-.73-3.18,1.31-3.69a3.59,3.59,0,0,1,4.38,2.17c.27.56.55,1.12.79,1.69,2.61,6.28,5,12.64,7.86,18.82,2.72,5.93,11.71,7.95,17.26,4.33,4.85-3.17,7.68-7.77,9.61-13a77.38,77.38,0,0,0,4.16-17.78,35.45,35.45,0,0,0-1.5-14.73c-1.93-6.4-7.78-8.17-13.73-9.4-7.92-1.65-7.69-1.71-8.29,6.19-.36,4.77-1.75,9.4-6,12.34-1.53,1-2.69,1.77-3.31-1.46-1.64-8.47-6.09-15.63-14.21-19A46,46,0,0,0,502,191.68ZM431.38,195c.46-4.81-1.63-12.24-3.78-19.58-2.51-8.59-8.52-13.58-17.06-16.31-6.45-2.06-13-.93-19.5-2.09-5.56-1-11.17.74-16.78.67-2.85,0-1.9,1.76-1.41,3.08,5.07,13.56,11.6,26.61,13,41.38.91,9.66,1.51,19.22-1.25,28.67-.83,2.85-2,5.61-2.66,8.49-.25,1.09-1.43,3.13,1.39,3.39,6.69.6,13.34,1.78,20.08,1.49,7.55-.33,13.82-2.56,18.09-9.75C428.23,223.1,431,210.95,431.38,195Zm-134.9,50.67v.11H303c6.24,0,6.46-.37,3.77-6.14A9.06,9.06,0,0,0,306,238c-6-7.92-9.06-17.29-13.17-26.16a62.93,62.93,0,0,1-5.38-37.38c1-6.22.86-6.23-5.42-8.27-.46-.15-.87-.62-1.32-.64-2-.07-4.58-1.11-4.14,2.76.12,1.1-.73,2.33-1.18,3.48a43.1,43.1,0,0,0-2.29,23.91c2.67,13.59,6.8,26.89,10.29,40.32.83,3.2.55,8,2.55,9.27C288.53,246.87,292.89,245.65,296.48,245.65Zm166.88-16.12c12.53,0,22.76-9.24,22.67-20.6-.09-10.95-11.18-20.72-21.9-21.24-10.31-.5-23,10.72-23.15,21.34S449.44,231.23,463.36,229.54ZM284.77,152.27c6.55,0,11.95-4.66,12-10.35,0-6-5.5-11.25-11.92-11.28-5.12,0-9.71,5.35-9.71,11.38C275.11,148.57,278.6,152.27,284.77,152.27Z"/><path class="cls-2" d="M4.81,207.71C3.93,199,6,190.47,8.58,182a18,18,0,0,1,4.9-8c3.26-3.09,5.31-3.07,8.27.39a24.43,24.43,0,0,1,5.13,10.15c2.81,11.8,11.37,17.21,22,20.13,4.77,1.31,9.49,3,14.88,1.88,8.07-1.67,13.84-9.6,15.24-17,2.26-11.93-7.18-25.07-16.08-29.38-8.54-4.14-17.51-7.44-25.28-13.2C25.91,138.35,18,127.28,15,113c-1-4.6.52-9.11,1.32-13.61,1.19-6.75,2-13.76,5.57-19.66C28.23,69.15,34.61,58.56,43,49.43c6.08-6.59,11.47-13.8,18-20,5.18-4.93,10.78-9.32,17.66-11.73a21.11,21.11,0,0,1,2.82-1.06c3.62-.7,7.36-.84,10.06,2s1.24,5.89-.24,8.85a172.25,172.25,0,0,0-10.84,27C76.52,67.48,79,80.2,82.26,93c4.64,18.26,14.49,33.43,25.25,48.55a160.08,160.08,0,0,1,20,36.67c2.9,7.79,6.55,15.62,7.13,23.83.77,11,3.65,22.75-2.49,33.15-10.6,18-25.21,31.42-45.36,38.32-9.93,3.4-19.84,5.79-30.52,5.61-10.32-.17-18.66-4.22-26.38-10.28S16.82,254.91,11.4,247c-3.45-5-4.13-11.16-5-17C5.34,222.73,4.17,215.36,4.81,207.71Z"/><path class="cls-2" d="M235.09,126.19c4.78-.82,9.26.17,13.6,1.44,5.77,1.7,8.75,6.42,10.95,11.62a54.76,54.76,0,0,1,4,18.55A78.76,78.76,0,0,1,261,184.14c-2.53,8.74-5.74,17.48-12.3,24.44-2.25,2.39-2.61,6.2,1.61,8.57,5.29,3,10.17,6.26,13.18,11.87a42.94,42.94,0,0,1,4.66,14c.24,1.59.17,2.63-2.23,2.86a104.93,104.93,0,0,0-13.2,2.6c-3.81.88-4.47.4-4.65-3.43-.45-9.34-7-20.15-14.48-21.82-9-2-20-.71-24.32,8.29-2.87,5.94-2.8,11.49.43,17.09.93,1.61,1.77,3.47,3.15,4.6,3.88,3.18,1.1,4.1-1.43,5.64-7.74,4.72-16.23,8-24.07,12.49-2.57,1.48-5.47,2.23-8.28,3.19-3.2,1.1-3.67.43-3.65-2.58.07-8,2-15.71,3-23.57.85-6.74,1.55-13.51,2.47-20.24a75.8,75.8,0,0,0,.16-17c-.66-7.55-3.61-14.17-6.38-20.93-2.35-5.72-4.89-11.36-7.31-17.06s-1.91-10.41,2.87-14.32c9.57-7.84,18.8-16.06,29.61-22.44a85.38,85.38,0,0,1,27.73-10.13C230,125.78,232.68,126.19,235.09,126.19Zm-37.18,81.17c6.43.36,11.56-1.53,16.65-4.67,11.12-6.88,21.8-13.82,30-24.54,8-10.43,6.95-21,1.81-30.75a6.68,6.68,0,0,0-4.2-3.64c-6.56-1.62-13-.3-19.43.71-4.5.7-7.89,3.56-11.72,5.54a101.34,101.34,0,0,0-14.7,8.79,13.69,13.69,0,0,0-5,14.45C194,184.65,197.34,195.92,197.91,207.36Z"/><path class="cls-2" d="M167.06,119c-22.68,2.51-47.08-17.62-52.2-37.75-6-23.48.26-45.6,20.74-60A54,54,0,0,1,164,11a41.51,41.51,0,0,1,18.59,3.73c7.21,3.15,14.27,6.4,20.1,12.06a55.62,55.62,0,0,1,15.8,29.64c3.14,15.7.07,30.29-10.59,43-6.09,7.26-12.71,13.63-21.56,17.21C180.06,119.23,173.32,119.33,167.06,119Zm-1.38-81.85c-16.14-.71-29.46,14.9-29.7,27.15-.4,20.17,14.17,31.82,28.91,32.32,16.84.58,30.38-13.56,30.32-30.14C195.16,52.61,184.86,36.29,165.68,37.16Z"/><path class="cls-2" d="M264.63,5.51c8.82-.43,16.34,2.49,24,4.71A24.14,24.14,0,0,1,298.2,15c7,6.19,8.23,11.66,3.9,20.79-3.25,6.85-5.16,7.62-12.37,5.51-5.47-1.6-11-3.24-16.58-1-11.56,4.6-15.25,16.36-7.44,26.24,2.55,3.22,6.25,4.75,9.94.61a14.48,14.48,0,0,1,6-3.58c1.49-.56,2.65,0,3.72,1.17,1.23,1.34.3,2.46-.29,3.42-1.55,2.54-4,4.16-6.4,5.87-1.3.94-2.93,1.54-4,2.67-1.64,1.7-4.68,3-3.76,5.92a8.94,8.94,0,0,0,7.58,6.27c7.2,1.1,12.66-1.83,16.89-7.47,2.15-2.87,10.51-5,13.85-3.57,3.55,1.56,4.62,4.29,3.85,8.5-1,5.39-1.86,10.71-4.88,15.5-3.21,5.1-7.75,6.95-13.58,7.23s-10.78-1.85-16.14-3.05c-7.89-1.77-15.94-2.85-23.82-4.74-9.16-2.2-12.92-6.51-12.71-16.14.21-9.43.52-18.83-2.43-27.92s-5.84-17.88-9.21-26.65c-2.18-5.67-1.7-8.39,2.23-13.24s9.34-6.72,14.67-8.67C253,6.6,259,4.85,264.63,5.51Z"/><path class="cls-2" d="M337.55,160c6.17,0,15.66,6.31,17.59,11.69.7,2,1.05,3.37-2.3,4-5,.89-9.81-.48-14.7-.25-2.17.1-4.46-.5-5.56-2.52-1.44-2.65-3.26-4.19-6.34-3.58-3.31.66-4.81,3.42-5.4,6.15-.86,4,1.12,8.69,6.77,8.6,6.87-.11,13.82-.92,20.63.68,11.59,2.73,21.93,7.74,23.83,21.23,1.49,10.57,1.22,21.46-3.37,31.65a9,9,0,0,1-7.51,5.56c-8.56.67-17.19,1.12-25.49-2.2-10.45-4.18-16.92-11.55-18.86-22.74-.21-1.22-.61-2.42-.74-3.65-.1-.93-.22-1.67,1.3-2.16,5.29-1.69,10.47-3.74,15.66-5.74,1.59-.61,2.21-.5,2.4,1.45a18.83,18.83,0,0,0,1.58,6.07c1.38,3,3.27,5.29,7.29,4.58,3.2-.57,7.22-3.88,8.05-7.33,1.09-4.53-.68-8.37-5.17-10.66-8.18-4.17-16.8-4.58-25.61-2.6a23.2,23.2,0,0,1-14.41-1.4c-3.09-1.33-4.44-4.67-5-8-1.29-7.44,1.5-12.58,7.33-17.73,6.76-6,14.28-8.76,22.62-10.69C334.08,159.94,335.94,160.29,337.55,160Z"/><path class="cls-2" d="M502,191.68a46,46,0,0,1,18.34,3.41c8.12,3.39,12.57,10.56,14.21,19,.63,3.23,1.79,2.51,3.31,1.46,4.28-2.94,5.68-7.57,6-12.34.59-7.9.36-7.84,8.29-6.19,5.95,1.24,11.8,3,13.73,9.4a35.45,35.45,0,0,1,1.5,14.73A77.38,77.38,0,0,1,563.27,239c-1.93,5.21-4.76,9.82-9.61,13-5.55,3.62-14.54,1.61-17.26-4.33-2.83-6.18-5.26-12.54-7.86-18.82-.24-.57-.51-1.13-.79-1.69a3.59,3.59,0,0,0-4.38-2.17c-2,.51-1.44,2.86-1.31,3.69.64,4-.06,7.92.32,11.85.49,5.12-1.88,7.38-7.79,6.72s-11.68-1.3-17.33-3c-2.46-.74-3.8-1.7-3-5.07a175.12,175.12,0,0,0,4-22.88c.67-6.53-1-13-2.33-19.44-1-4.95-1.07-5.11,3.74-5.13Z"/><path class="cls-2" d="M431.38,195c-.36,16-3.16,28.12-9.89,39.46-4.27,7.19-10.54,9.42-18.09,9.75-6.74.29-13.39-.89-20.08-1.49-2.82-.25-1.64-2.3-1.39-3.39.66-2.88,1.83-5.64,2.66-8.49,2.76-9.45,2.16-19,1.25-28.67-1.39-14.77-7.92-27.82-13-41.38-.49-1.32-1.44-3.12,1.41-3.08,5.61.07,11.22-1.68,16.78-.67,6.46,1.17,13,0,19.5,2.09,8.54,2.72,14.54,7.71,17.06,16.31C429.75,182.74,431.84,190.16,431.38,195Zm-25.62-18c-7,0-10.25,2.52-10.06,8.14a46.08,46.08,0,0,0,1.16,7.39c1.61,8,5,15.77,4.23,24.26-.28,2.89,1.59,3.14,3.75,2.4a23.35,23.35,0,0,0,8.37-5.46c4.88-4.7,8.85-10.26,7.82-17.48a38.22,38.22,0,0,0-5-13.87A10.49,10.49,0,0,0,405.76,177Z"/><path class="cls-2" d="M296.48,245.65c-3.59,0-7.95,1.22-10.53-.39-2-1.25-1.72-6.07-2.55-9.27-3.49-13.43-7.61-26.73-10.29-40.32a43.1,43.1,0,0,1,2.29-23.91c.45-1.15,1.3-2.38,1.18-3.48-.43-3.88,2.16-2.84,4.14-2.76.45,0,.86.49,1.32.64,6.28,2,6.42,2.06,5.42,8.27a62.93,62.93,0,0,0,5.38,37.38C296.95,220.66,300,230,306,238a9.06,9.06,0,0,1,.8,1.67c2.69,5.77,2.47,6.14-3.77,6.14h-6.56Z"/><path class="cls-2" d="M463.36,229.54c-13.91,1.69-22.49-10-22.38-20.49s12.84-21.84,23.15-21.34c10.73.52,21.81,10.29,21.9,21.24C486.12,220.29,475.89,229.54,463.36,229.54Zm.8-10c5.49,0,8.8-3.6,8.75-9.48a9.66,9.66,0,1,0-19.32-.33C453.64,215.4,458.06,219.51,464.16,219.49Z"/><path class="cls-2" d="M284.77,152.27c-6.17,0-9.66-3.71-9.65-10.25,0-6,4.6-11.41,9.71-11.38,6.42,0,12,5.28,11.92,11.28C296.72,147.61,291.32,152.28,284.77,152.27Z"/><path class="cls-1" d="M197.91,207.36c-.57-11.44-3.94-22.71-6.59-34.11a13.69,13.69,0,0,1,5-14.45,101.34,101.34,0,0,1,14.7-8.79c3.83-2,7.22-4.83,11.72-5.54,6.46-1,12.87-2.33,19.43-.71a6.68,6.68,0,0,1,4.2,3.64c5.14,9.71,6.19,20.32-1.81,30.75-8.22,10.72-18.9,17.66-30,24.54C209.47,205.83,204.33,207.71,197.91,207.36Z"/><path class="cls-1" d="M165.68,37.16c19.19-.87,29.48,15.45,29.53,29.33.06,16.58-13.48,30.72-30.32,30.14C150.15,96.12,135.57,84.47,136,64.3,136.22,52.06,149.54,36.44,165.68,37.16Z"/><path class="cls-1" d="M405.76,177a10.48,10.48,0,0,1,10.29,5.38,38.22,38.22,0,0,1,5,13.87c1,7.22-2.94,12.78-7.82,17.48a23.35,23.35,0,0,1-8.37,5.46c-2.15.75-4,.49-3.75-2.4.81-8.49-2.62-16.21-4.23-24.26a46.08,46.08,0,0,1-1.16-7.39C395.51,179.52,398.76,177,405.76,177Z"/><path class="cls-1" d="M464.16,219.49c-6.09,0-10.51-4.09-10.57-9.81a9.66,9.66,0,1,1,19.32.33C473,215.89,469.64,219.48,464.16,219.49Z"/></g></g></svg>